<?xml version="1.0" standalone="no"?>
<!DOCTYPE svg PUBLIC "-//W3C//DTD SVG 20010904//EN"
 "http://www.w3.org/TR/2001/REC-SVG-20010904/DTD/svg10.dtd">
<svg version="1.0" xmlns="http://www.w3.org/2000/svg"
 width="896.000000pt" height="896.000000pt" viewBox="0 0 896.000000 896.000000"
 preserveAspectRatio="xMidYMid meet">
<metadata>
Created by potrace 1.14, written by Peter Selinger 2001-2017
</metadata>
<g transform="translate(0.000000,896.000000) scale(0.100000,-0.100000)"
fill="#000000" stroke="none">
<path d="M5935 8926 c-111 -40 -143 -57 -223 -113 -111 -78 -176 -181 -212
-335 -20 -85 -45 -319 -38 -354 2 -10 16 27 30 84 68 258 245 513 472 681 47
35 86 66 86 67 0 9 -31 1 -115 -30z"/>
<path d="M7040 8829 c-407 -51 -762 -259 -966 -564 -124 -188 -195 -393 -224
-650 -17 -151 -9 -415 11 -415 5 0 9 7 9 15 0 31 89 284 134 380 194 415 549
715 970 821 136 35 383 44 533 20 479 -75 881 -394 1115 -882 84 -175 163
-450 193 -667 9 -65 25 -51 65 60 49 136 63 252 58 486 -4 197 -5 205 -36 296
-201 584 -737 1003 -1401 1095 -118 17 -350 19 -461 5z"/>
<path d="M7214 8075 c14 -21 35 -70 59 -138 6 -16 9 -16 35 -3 15 8 44 17 65
21 20 4 37 10 37 13 0 13 -177 132 -197 132 -14 0 -13 -3 1 -25z"/>
<path d="M7671 7609 c-15 -50 -81 -123 -136 -152 -62 -32 -165 -30 -234 6 -29
15 -55 27 -57 27 -2 0 -13 -18 -24 -40 l-21 -41 -47 42 c-93 83 -193 109 -259
69 -43 -26 -90 -92 -109 -154 -8 -28 -20 -97 -27 -153 l-11 -103 -96 0 c-142
0 -280 43 -378 118 -24 18 -48 30 -54 26 -14 -9 -3 -249 18 -394 71 -489 320
-981 623 -1235 452 -379 923 -261 1117 280 65 181 78 272 78 525 0 251 -10
330 -70 560 -35 135 -100 313 -156 425 -40 80 -131 235 -139 235 -3 0 -11 -18
-18 -41z m250 -1348 c32 -33 37 -67 14 -110 -29 -56 -103 -64 -151 -16 -55 55
-9 155 71 155 27 0 44 -8 66 -29z m-166 -162 c48 -12 118 -66 139 -108 53
-103 10 -238 -93 -295 -115 -62 -256 -13 -305 106 -50 118 19 261 142 298 39
12 67 12 117 -1z"/>
<path d="M2250 5799 c-75 -11 -342 -68 -348 -74 -3 -3 45 -5 107 -5 309 0 602
-71 889 -215 l147 -74 -86 82 c-255 246 -451 325 -709 286z"/>
<path d="M2090 5273 c-455 -45 -966 -282 -1539 -713 -159 -119 -413 -334 -486
-409 l-40 -42 -3 -182 c-4 -173 11 -389 28 -417 6 -9 63 37 196 156 875 783
1493 1179 2014 1291 123 26 347 24 452 -5 118 -32 218 -77 322 -146 53 -35 96
-59 96 -53 0 20 -108 152 -187 228 -93 90 -176 148 -289 201 -162 76 -375 110
-564 91z"/>
<path d="M7266 3010 c-87 -22 -164 -41 -170 -43 -6 -2 -11 -48 -12 -123 -4
-204 -53 -388 -145 -540 -19 -30 -38 -53 -44 -51 -25 8 -110 131 -155 223 -43
89 -52 101 -72 98 -706 -118 -1539 -338 -2187 -577 l-163 -60 7 -66 c9 -77 9
-320 1 -329 -12 -11 -193 89 -259 143 -84 69 -184 195 -237 296 l-40 77 -132
-42 c-73 -24 -147 -50 -164 -59 -81 -42 -134 -140 -134 -249 0 -102 111 -404
225 -614 180 -330 465 -640 747 -812 469 -287 1032 -357 1585 -198 368 106
708 309 983 585 206 208 360 423 485 676 173 353 260 700 286 1145 21 372 -14
502 -150 548 -51 18 -81 14 -255 -28z"/>
</g>
</svg>
